<svg width="369" height="189" viewBox="0 0 369 189" fill="none" xmlns="http://www.w3.org/2000/svg">
<g clip-path="url(#clip0_101_3819)">
<rect x="12.1514" y="24.53" width="130" height="40" rx="20" transform="rotate(17.181 12.1514 24.53)" fill="#3E90F0"/>
<path d="M29.0053 56.9555L32.3137 46.2553L36.8231 47.6495C37.9645 48.0024 38.8989 48.537 39.6265 49.2532C40.3642 49.9725 40.8482 50.8088 41.0782 51.7619C41.3184 52.7182 41.2747 53.7263 40.947 54.7861C40.6193 55.846 40.0865 56.7028 39.3484 57.3566C38.6205 58.0136 37.7491 58.4308 36.734 58.6082C35.7292 58.7888 34.6561 58.7026 33.5147 58.3497L29.0053 56.9555ZM30.9451 56.0982L33.8342 56.9915C34.7208 57.2656 35.5371 57.3338 36.2831 57.196C37.0392 57.0613 37.6886 56.7485 38.2312 56.2576C38.7769 55.7564 39.1727 55.1084 39.4184 54.3135C39.6673 53.5085 39.7064 52.7502 39.5356 52.0386C39.3649 51.3271 39.0054 50.7024 38.4571 50.1644C37.9191 49.6296 37.2068 49.2252 36.3202 48.951L33.4311 48.0578L30.9451 56.0982ZM44.8312 61.9491C43.965 61.6813 43.2558 61.2667 42.7037 60.7052C42.1618 60.1469 41.8035 59.5002 41.6288 58.7651C41.4644 58.0332 41.5066 57.2647 41.7555 56.4596C42.0044 55.6546 42.3982 54.9948 42.9369 54.4803C43.4858 53.9689 44.1195 53.6346 44.8381 53.4771C45.57 53.3126 46.3232 53.3501 47.0977 53.5896C47.8824 53.8322 48.5218 54.2197 49.0159 54.7521C49.51 55.2845 49.8275 55.9186 49.9685 56.6544C50.1228 57.3831 50.0707 58.1653 49.8124 59.001C49.7934 59.0621 49.7663 59.1319 49.7309 59.2102C49.7057 59.2918 49.677 59.3666 49.6447 59.4348L42.7507 57.3033L43.0768 56.2485L49.2065 58.1438L48.4969 58.3263C48.6678 57.8097 48.7042 57.313 48.606 56.836C48.5079 56.3591 48.2947 55.9471 47.9666 55.6C47.6518 55.2459 47.2346 54.9885 46.7149 54.8278C46.2053 54.6702 45.7156 54.6472 45.2457 54.7587C44.7789 54.86 44.3689 55.0849 44.0155 55.4334C43.6653 55.7717 43.4082 56.2059 43.2444 56.7358L43.1688 56.9803C43.0018 57.5205 42.9744 58.0423 43.0866 58.5459C43.2122 59.0425 43.463 59.4773 43.8389 59.8504C44.2148 60.2234 44.6932 60.4997 45.2741 60.6793C45.753 60.8274 46.2113 60.8798 46.649 60.8365C47.0969 60.7963 47.519 60.6588 47.9153 60.4241L48.4325 61.6223C47.9333 61.9369 47.3738 62.1212 46.7542 62.1753C46.1448 62.2325 45.5038 62.1571 44.8312 61.9491ZM52.4191 64.1947L51.3777 54.9967L52.9063 55.4693L53.7866 63.7802L53.0529 63.5533L58.5315 57.2085L59.9684 57.6528L53.9171 64.6579L52.4191 64.1947ZM62.0201 67.2637C61.1539 66.9959 60.4447 66.5813 59.8926 66.0198C59.3507 65.4615 58.9924 64.8148 58.8177 64.0797C58.6533 63.3478 58.6955 62.5793 58.9444 61.7742C59.1933 60.9692 59.5871 60.3094 60.1258 59.7949C60.6747 59.2835 61.3084 58.9492 62.027 58.7917C62.7589 58.6272 63.5121 58.6647 64.2866 58.9042C65.0713 59.1468 65.7107 59.5343 66.2048 60.0667C66.6989 60.5991 67.0164 61.2332 67.1574 61.969C67.3117 62.6977 67.2596 63.4799 67.0012 64.3156C66.9823 64.3767 66.9552 64.4465 66.9198 64.5248C66.8946 64.6064 66.8659 64.6812 66.8336 64.7494L59.9396 62.6179L60.2657 61.5631L66.3954 63.4584L65.6858 63.6409C65.8567 63.1243 65.8931 62.6276 65.7949 62.1506C65.6968 61.6737 65.4836 61.2617 65.1555 60.9146C64.8407 60.5605 64.4235 60.3031 63.9038 60.1424C63.3942 59.9848 62.9045 59.9618 62.4346 60.0733C61.9678 60.1746 61.5578 60.3995 61.2044 60.748C60.8542 61.0863 60.5971 61.5205 60.4333 62.0504L60.3577 62.2949C60.1907 62.8351 60.1633 63.3569 60.2755 63.8606C60.4011 64.3571 60.6519 64.7919 61.0278 65.165C61.4037 65.538 61.8821 65.8143 62.463 65.9939C62.9419 66.142 63.4002 66.1944 63.8379 66.1511C64.2858 66.1109 64.7079 65.9734 65.1042 65.7387L65.6213 66.9369C65.1221 67.2515 64.5627 67.4358 63.9431 67.4899C63.3337 67.5471 62.6927 67.4717 62.0201 67.2637ZM67.6325 68.8986L71.1394 57.5563L72.6069 58.01L69.1 69.3523L67.6325 68.8986ZM75.1753 71.3312C74.36 71.0791 73.6916 70.6771 73.1701 70.125C72.6485 69.573 72.3004 68.9295 72.1258 68.1944C71.9543 67.4491 71.9914 66.6791 72.2372 65.8842C72.4861 65.0791 72.8901 64.4225 73.4491 63.9143C74.0082 63.4061 74.6572 63.0764 75.3962 62.9253C76.1383 62.764 76.9169 62.8094 77.7322 63.0614C78.5372 63.3103 79.2006 63.7108 79.7221 64.2628C80.257 64.8078 80.6067 65.4463 80.7711 66.1782C80.9489 66.9031 80.9118 67.6731 80.6598 68.4884C80.4108 69.2934 80.0068 69.9501 79.4478 70.4583C78.8989 70.9696 78.2483 71.3044 77.496 71.4626C76.7539 71.6239 75.9803 71.5801 75.1753 71.3312ZM75.5723 70.0471C76.092 70.2078 76.5919 70.234 77.072 70.1257C77.5623 70.0205 77.9908 69.7901 78.3575 69.4345C78.7274 69.0688 79.0006 68.6006 79.177 68.0299C79.3566 67.4491 79.3938 66.9135 79.2886 66.4232C79.1866 65.9227 78.9629 65.4907 78.6175 65.1271C78.2823 64.7667 77.8549 64.5062 77.3352 64.3455C76.8155 64.1848 76.3155 64.1586 75.8354 64.2669C75.3554 64.3753 74.9268 64.6057 74.5499 64.9581C74.1762 65.3003 73.8995 65.7618 73.7199 66.3427C73.5435 66.9133 73.5098 67.4556 73.6189 67.9694C73.7311 68.473 73.9548 68.9051 74.29 69.2655C74.6251 69.6259 75.0526 69.8865 75.5723 70.0471ZM85.5356 74.5345C84.863 74.3265 84.2938 73.983 83.8278 73.504C83.3752 73.018 83.0752 72.4172 82.928 71.7018C82.791 70.9895 82.8642 70.1748 83.1478 69.2577C83.4314 68.3405 83.8256 67.625 84.3306 67.1113C84.8457 66.6006 85.4257 66.2776 86.0706 66.142C86.7256 66.0096 87.3996 66.0505 88.0925 66.2647C88.8874 66.5105 89.537 66.9011 90.0413 67.4367C90.5456 67.9722 90.88 68.6059 91.0445 69.3378C91.2121 70.0596 91.1683 70.8331 90.9131 71.6586C90.6579 72.484 90.2558 73.1524 89.707 73.6638C89.1581 74.1751 88.5244 74.5095 87.8058 74.667C87.0872 74.8244 86.3305 74.7802 85.5356 74.5345ZM80.3517 76.0802L83.7735 65.0131L85.1798 65.4479L84.504 67.6338L83.8309 69.4856L83.4025 71.4131L81.8192 76.5339L80.3517 76.0802ZM85.8103 73.2126C86.3301 73.3733 86.83 73.3995 87.3101 73.2911C87.8004 73.1859 88.2289 72.9556 88.5956 72.6C88.9756 72.2375 89.2539 71.7708 89.4303 71.2001C89.6099 70.6193 89.642 70.0821 89.5267 69.5887C89.4246 69.0882 89.2009 68.6562 88.8556 68.2926C88.5204 67.9322 88.093 67.6716 87.5732 67.5109C87.0637 67.3534 86.5638 67.3272 86.0735 67.4324C85.5934 67.5408 85.1649 67.7712 84.788 68.1235C84.4244 68.4689 84.1528 68.932 83.9732 69.5129C83.7968 70.0835 83.758 70.6242 83.8569 71.1349C83.9692 71.6385 84.1929 72.0705 84.528 72.431C84.8734 72.7945 85.3008 73.0551 85.8103 73.2126ZM95.0992 77.4914C94.233 77.2236 93.5238 76.8089 92.9717 76.2475C92.4298 75.6891 92.0715 75.0424 91.8968 74.3074C91.7323 73.5755 91.7746 72.807 92.0235 72.0019C92.2724 71.1968 92.6662 70.5371 93.2049 70.0226C93.7538 69.5112 94.3875 69.1768 95.106 69.0194C95.838 68.8549 96.5912 68.8924 97.3656 69.1319C98.1503 69.3745 98.7897 69.762 99.2839 70.2944C99.778 70.8267 100.096 71.4608 100.236 72.1966C100.391 72.9254 100.339 73.7076 100.08 74.5432C100.061 74.6044 100.034 74.6741 99.9989 74.7525C99.9737 74.834 99.9449 74.9089 99.9127 74.9771L93.0187 72.8455L93.3448 71.7908L99.4745 73.686L98.7649 73.8686C98.9358 73.352 98.9722 72.8552 98.874 72.3783C98.7758 71.9013 98.5627 71.4893 98.2346 71.1423C97.9198 70.7881 97.5025 70.5307 96.9828 70.37C96.4733 70.2125 95.9836 70.1895 95.5137 70.301C95.0469 70.4023 94.6368 70.6272 94.2835 70.9757C93.9332 71.314 93.6762 71.7481 93.5123 72.278L93.4367 72.5226C93.2697 73.0627 93.2424 73.5846 93.3546 74.0882C93.4802 74.5848 93.7309 75.0196 94.1069 75.3926C94.4828 75.7656 94.9612 76.042 95.542 76.2216C96.021 76.3696 96.4793 76.422 96.917 76.3787C97.3648 76.3385 97.7869 76.2011 98.1833 75.9664L98.7004 77.1646C98.2012 77.4792 97.6418 77.6635 97.0222 77.7175C96.4128 77.7747 95.7718 77.6994 95.0992 77.4914ZM100.712 79.1262L103.217 71.0246L104.623 71.4594L103.942 73.6606L103.975 73.0678C104.372 72.5766 104.882 72.2652 105.503 72.1335C106.124 72.0018 106.822 72.0557 107.597 72.2952L107.157 73.7168C107.099 73.6877 107.04 73.6637 106.978 73.6448C106.927 73.629 106.877 73.6133 106.826 73.5975C106.041 73.3549 105.347 73.3971 104.743 73.7241C104.14 74.051 103.701 74.6578 103.427 75.5444L102.179 79.5799L100.712 79.1262Z" fill="#FEFEFE"/>
</g>
<g clip-path="url(#clip1_101_3819)">
<rect x="75.96" y="84.53" width="121" height="40" rx="20" transform="rotate(36.2025 75.96 84.53)" fill="#AD00FF"/>
<path d="M81.3255 120.678L87.9406 111.64L91.7494 114.428C92.7134 115.134 93.4226 115.944 93.877 116.858C94.3401 117.778 94.525 118.727 94.4318 119.703C94.3472 120.685 93.9774 121.624 93.3221 122.519C92.6669 123.414 91.8839 124.051 90.973 124.428C90.0708 124.812 89.1109 124.923 88.0935 124.759C87.0847 124.603 86.0982 124.171 85.1342 123.466L81.3255 120.678ZM83.4387 120.5L85.8789 122.286C86.6278 122.834 87.3773 123.164 88.1274 123.277C88.8862 123.397 89.6021 123.312 90.275 123.025C90.9543 122.729 91.5396 122.246 92.031 121.574C92.5288 120.894 92.8128 120.19 92.8833 119.462C92.9537 118.733 92.8175 118.026 92.4745 117.338C92.1402 116.657 91.5986 116.043 90.8497 115.495L88.4096 113.709L83.4387 120.5ZM94.6597 130.557C93.928 130.021 93.3927 129.398 93.0538 128.688C92.7234 127.983 92.5955 127.255 92.6699 126.503C92.753 125.758 93.0433 125.045 93.5411 124.365C94.0388 123.685 94.6261 123.189 95.3031 122.879C95.9886 122.574 96.6967 122.464 97.4274 122.55C98.1729 122.633 98.8728 122.914 99.5269 123.393C100.19 123.878 100.668 124.452 100.962 125.117C101.255 125.781 101.349 126.484 101.242 127.226C101.15 127.965 100.846 128.687 100.33 129.393C100.292 129.445 100.243 129.502 100.184 129.565C100.134 129.633 100.083 129.695 100.03 129.749L94.207 125.487L94.859 124.596L100.036 128.385L99.306 128.327C99.6359 127.894 99.8322 127.436 99.8948 126.953C99.9575 126.47 99.8903 126.011 99.6932 125.576C99.511 125.139 99.2004 124.76 98.7615 124.438C98.3311 124.123 97.8756 123.942 97.395 123.894C96.9207 123.838 96.4598 123.917 96.0121 124.131C95.5707 124.337 95.1862 124.664 94.8586 125.111L94.7074 125.318C94.3735 125.774 94.1776 126.258 94.1195 126.771C94.0764 127.281 94.1717 127.774 94.4056 128.249C94.6394 128.725 95.0016 129.142 95.4922 129.501C95.8968 129.797 96.313 129.996 96.7409 130.098C97.1773 130.206 97.6212 130.213 98.0724 130.12L98.1708 131.422C97.5963 131.556 97.0074 131.548 96.404 131.398C95.8092 131.253 95.2277 130.973 94.6597 130.557ZM101.339 135.446C100.77 135.03 100.285 134.555 99.8819 134.023C99.4875 133.496 99.2258 133.014 99.097 132.576L100.332 131.972C100.479 132.385 100.718 132.817 101.048 133.27C101.377 133.722 101.766 134.113 102.213 134.44C102.79 134.862 103.263 135.083 103.632 135.102C104.01 135.128 104.306 134.994 104.521 134.701C104.678 134.486 104.723 134.262 104.657 134.028C104.59 133.794 104.45 133.552 104.235 133.303C104.03 133.06 103.788 132.804 103.51 132.534C103.238 132.255 102.972 131.968 102.712 131.673C102.459 131.368 102.251 131.057 102.087 130.739C101.93 130.412 101.858 130.076 101.874 129.73C101.895 129.376 102.051 129.001 102.341 128.605C102.643 128.192 103.024 127.915 103.483 127.775C103.942 127.636 104.442 127.638 104.984 127.783C105.54 127.926 106.111 128.212 106.696 128.64C107.144 128.968 107.555 129.355 107.929 129.8C108.318 130.244 108.587 130.672 108.735 131.084L107.487 131.678C107.328 131.244 107.11 130.866 106.831 130.543C106.552 130.22 106.244 129.935 105.909 129.69C105.366 129.293 104.896 129.087 104.497 129.072C104.104 129.049 103.806 129.175 103.605 129.451C103.435 129.683 103.38 129.921 103.44 130.163C103.516 130.403 103.653 130.649 103.852 130.901C104.06 131.159 104.3 131.427 104.572 131.705C104.85 131.975 105.116 132.262 105.369 132.566C105.629 132.862 105.836 133.166 105.991 133.478C106.155 133.796 106.229 134.128 106.214 134.474C106.207 134.826 106.062 135.195 105.779 135.583C105.476 135.996 105.094 136.265 104.633 136.39C104.171 136.515 103.658 136.502 103.093 136.353C102.535 136.195 101.95 135.893 101.339 135.446ZM105.759 138.562L110.767 131.719L112.007 132.627L106.998 139.469L105.759 138.562ZM112.351 130.856C112.11 130.68 111.965 130.454 111.914 130.179C111.873 129.911 111.934 129.665 112.098 129.441C112.268 129.209 112.487 129.072 112.756 129.03C113.032 128.995 113.291 129.066 113.532 129.242C113.773 129.419 113.915 129.641 113.956 129.909C114.013 130.175 113.959 130.42 113.795 130.644C113.625 130.876 113.403 131.018 113.128 131.068C112.86 131.109 112.601 131.039 112.351 130.856ZM110.328 145.872C109.7 145.412 109.155 144.875 108.693 144.259C108.234 143.659 107.939 143.059 107.808 142.461L109.101 141.941C109.218 142.449 109.452 142.951 109.804 143.446C110.149 143.95 110.575 144.388 111.083 144.759C111.892 145.352 112.625 145.597 113.281 145.495C113.937 145.394 114.548 144.956 115.115 144.181L116.174 142.735L117.295 141.474L118.232 140.058L119.602 138.186L120.777 139.046L116.449 144.959C115.567 146.164 114.617 146.83 113.599 146.957C112.58 147.085 111.49 146.723 110.328 145.872ZM112.271 142.893C111.608 142.408 111.115 141.835 110.792 141.175C110.483 140.513 110.357 139.819 110.412 139.093C110.477 138.373 110.748 137.687 111.227 137.032C111.712 136.37 112.285 135.903 112.945 135.633C113.62 135.361 114.317 135.276 115.035 135.378C115.762 135.487 116.456 135.784 117.119 136.269C117.704 136.698 118.15 137.209 118.455 137.803C118.767 138.388 118.886 139.03 118.811 139.728C118.744 140.433 118.437 141.16 117.889 141.909C117.347 142.649 116.75 143.157 116.099 143.434C115.455 143.716 114.801 143.806 114.137 143.703C113.478 143.591 112.856 143.321 112.271 142.893ZM113.207 141.912C113.663 142.246 114.137 142.447 114.629 142.516C115.12 142.585 115.588 142.524 116.031 142.334C116.484 142.149 116.87 141.837 117.192 141.398C117.513 140.959 117.693 140.496 117.732 140.01C117.78 139.529 117.694 139.069 117.473 138.63C117.259 138.182 116.924 137.792 116.467 137.458C116.011 137.124 115.533 136.919 115.033 136.844C114.548 136.766 114.079 136.82 113.627 137.004C113.183 137.195 112.8 137.51 112.479 137.949C112.158 138.388 111.973 138.848 111.926 139.328C111.886 139.815 111.974 140.283 112.188 140.73C112.411 141.184 112.751 141.578 113.207 141.912ZM126.705 143.285C127.264 143.695 127.676 144.162 127.94 144.686C128.213 145.216 128.309 145.789 128.229 146.404C128.149 147.019 127.863 147.663 127.371 148.334L124.489 152.272L123.25 151.365L126.028 147.569C126.513 146.906 126.715 146.287 126.634 145.712C126.561 145.143 126.232 144.645 125.647 144.216C125.208 143.895 124.762 143.701 124.308 143.633C123.855 143.566 123.416 143.634 122.989 143.838C122.571 144.047 122.18 144.402 121.814 144.901L119.234 148.426L117.995 147.518L123.004 140.676L124.191 141.545L122.84 143.391L123.005 142.759C123.557 142.475 124.156 142.379 124.804 142.469C125.451 142.56 126.085 142.832 126.705 143.285ZM129.631 156.155C128.9 155.619 128.364 154.996 128.025 154.285C127.695 153.581 127.567 152.853 127.641 152.101C127.725 151.355 128.015 150.642 128.513 149.962C129.01 149.282 129.598 148.787 130.275 148.476C130.96 148.172 131.668 148.062 132.399 148.147C133.144 148.23 133.844 148.511 134.498 148.99C135.161 149.475 135.639 150.05 135.933 150.714C136.227 151.379 136.32 152.082 136.214 152.823C136.122 153.563 135.818 154.285 135.301 154.991C135.263 155.043 135.215 155.1 135.156 155.162C135.106 155.231 135.054 155.292 135.001 155.346L129.179 151.084L129.831 150.193L135.008 153.983L134.278 153.924C134.607 153.492 134.804 153.034 134.866 152.551C134.929 152.068 134.862 151.609 134.665 151.174C134.483 150.737 134.172 150.357 133.733 150.036C133.303 149.721 132.847 149.54 132.367 149.492C131.892 149.436 131.431 149.515 130.984 149.729C130.542 149.934 130.158 150.261 129.83 150.709L129.679 150.915C129.345 151.371 129.149 151.856 129.091 152.369C129.048 152.879 129.143 153.372 129.377 153.847C129.611 154.322 129.973 154.739 130.464 155.098C130.868 155.395 131.285 155.593 131.712 155.695C132.149 155.803 132.593 155.811 133.044 155.718L133.142 157.019C132.568 157.154 131.979 157.146 131.376 156.995C130.781 156.851 130.199 156.57 129.631 156.155ZM134.404 159.529L139.413 152.687L140.601 153.556L139.24 155.415L139.464 154.865C140 154.53 140.583 154.402 141.213 154.48C141.843 154.558 142.486 154.836 143.14 155.315L142.261 156.516C142.216 156.47 142.167 156.428 142.116 156.39C142.072 156.358 142.029 156.327 141.986 156.295C141.324 155.81 140.654 155.624 139.977 155.736C139.299 155.849 138.687 156.279 138.139 157.028L135.644 160.437L134.404 159.529Z" fill="#FEFEFE"/>
</g>
<rect x="2.33502" y="140.256" width="89" height="40" rx="20" transform="rotate(-1.11109 2.33502 140.256)" fill="#DDA73F"/>
<path d="M31.7802 165.818C30.927 165.834 30.1087 165.722 29.3252 165.481C28.5415 165.23 27.9217 164.9 27.4657 164.493L28.0334 163.234C28.4672 163.599 29.0171 163.898 29.6831 164.13C30.3491 164.363 31.0393 164.472 31.7538 164.458C32.4044 164.445 32.9308 164.361 33.3332 164.203C33.7356 164.046 34.0302 163.838 34.2172 163.578C34.404 163.308 34.4942 163.007 34.4878 162.677C34.4804 162.293 34.3464 161.986 34.0859 161.756C33.8361 161.526 33.5072 161.346 33.0992 161.215C32.7017 161.074 32.262 160.954 31.78 160.857C31.298 160.76 30.8104 160.646 30.3172 160.517C29.8344 160.377 29.3881 160.199 28.9785 159.983C28.5796 159.767 28.2539 159.474 28.0014 159.106C27.7486 158.727 27.6165 158.238 27.6049 157.641C27.5937 157.065 27.7328 156.535 28.0221 156.049C28.3218 155.552 28.7835 155.154 29.4072 154.854C30.0413 154.543 30.8489 154.378 31.83 154.359C32.4806 154.346 33.1274 154.419 33.7706 154.577C34.4138 154.735 34.9731 154.97 35.4486 155.281L34.9455 156.571C34.4594 156.26 33.9484 156.041 33.4124 155.912C32.8763 155.773 32.3576 155.709 31.8564 155.718C31.2272 155.731 30.7115 155.821 30.3093 155.988C29.9072 156.156 29.6127 156.375 29.4259 156.646C29.2498 156.916 29.1649 157.216 29.1713 157.547C29.179 157.941 29.3077 158.254 29.5576 158.484C29.8181 158.713 30.147 158.893 30.5443 159.024C30.9522 159.155 31.3973 159.275 31.8795 159.383C32.3614 159.48 32.8437 159.593 33.3263 159.723C33.8196 159.852 34.2657 160.024 34.6646 160.241C35.0742 160.457 35.4053 160.749 35.6578 161.118C35.9103 161.486 36.0423 161.964 36.0537 162.55C36.0646 163.116 35.9202 163.646 35.6205 164.143C35.3205 164.629 34.8481 165.027 34.2034 165.339C33.5691 165.639 32.7614 165.799 31.7802 165.818ZM38.274 165.564L38.0568 154.366L39.3686 154.34L44.5558 162.705L43.8519 162.719L48.6468 154.161L49.9586 154.135L50.1918 165.333L48.6561 165.362L48.4697 156.58L48.8377 156.573L44.5665 164.082L43.8306 164.096L39.2395 156.759L39.6394 156.752L39.8097 165.534L38.274 165.564ZM53.3764 165.271L53.1592 154.073L54.471 154.048L59.6582 162.413L58.9543 162.426L63.7493 153.868L65.061 153.842L65.2942 165.04L63.7585 165.07L63.5721 156.288L63.9401 156.28L59.6689 163.789L58.933 163.803L54.3419 156.467L54.7418 156.459L54.9121 165.241L53.3764 165.271Z" fill="#FEFEFE"/>
<rect x="155.335" y="90.1377" width="73" height="40" rx="20" transform="rotate(-5.61114 155.335 90.1377)" fill="#DDA73F"/>
<path d="M190.333 101.57L191.925 101.414L193.02 112.56L191.428 112.717L190.333 101.57ZM185.026 113.346L183.434 113.502L182.339 102.356L183.931 102.199L185.026 113.346ZM191.083 107.735L184.379 108.393L184.243 107.008L190.947 106.349L191.083 107.735ZM196.181 112.25L195.086 101.103L199.433 100.676C200.41 100.58 201.258 100.652 201.978 100.893C202.699 101.133 203.273 101.526 203.702 102.074C204.131 102.621 204.385 103.298 204.464 104.105C204.544 104.912 204.426 105.625 204.112 106.246C203.797 106.855 203.309 107.348 202.65 107.724C201.99 108.099 201.172 108.335 200.195 108.431L196.724 108.772L197.368 107.969L197.773 112.093L196.181 112.25ZM203.633 111.518L200.402 107.752L202.105 107.584L205.369 111.347L203.633 111.518ZM197.384 108.128L196.591 107.419L200.014 107.082C201.033 106.982 201.782 106.689 202.259 106.203C202.746 105.705 202.95 105.057 202.872 104.261C202.794 103.465 202.468 102.876 201.894 102.492C201.332 102.108 200.541 101.966 199.521 102.066L196.098 102.403L196.736 101.536L197.384 108.128Z" fill="#FEFEFE"/>
<g clip-path="url(#clip2_101_3819)">
<rect x="237.218" y="63" width="138" height="40" rx="20" transform="rotate(17.2826 237.218 63)" fill="#8E55EA"/>
<path d="M254.015 95.4552L257.342 84.7609L261.513 86.0586C262.45 86.3501 263.204 86.7465 263.774 87.2479C264.344 87.7492 264.72 88.3355 264.902 89.0065C265.084 89.6776 265.055 90.4002 264.814 91.1743C264.573 91.9483 264.188 92.56 263.657 93.0093C263.129 93.4484 262.488 93.7126 261.734 93.802C260.981 93.8914 260.135 93.7903 259.198 93.4988L255.868 92.4625L256.774 91.9737L255.543 95.9306L254.015 95.4552ZM261.165 97.6798L259.653 92.9532L261.287 93.4618L262.83 98.1979L261.165 97.6798ZM256.726 92.1264L256.272 91.1639L259.556 92.1859C260.534 92.4901 261.337 92.5111 261.966 92.2488C262.609 91.9794 263.049 91.4628 263.286 90.6989C263.524 89.9351 263.453 89.2651 263.074 88.6891C262.705 88.1162 262.031 87.6777 261.054 87.3734L257.769 86.3515L258.694 85.8015L256.726 92.1264ZM268.31 100.003C267.444 99.7341 266.736 99.3182 266.185 98.7557C265.644 98.1965 265.287 97.5491 265.113 96.8138C264.95 96.0816 264.994 95.3131 265.244 94.5085C265.494 93.7039 265.889 93.0448 266.429 92.5313C266.979 92.0209 267.613 91.6876 268.332 91.5315C269.064 91.3683 269.817 91.4071 270.591 91.648C271.376 91.892 272.014 92.2806 272.507 92.8139C273.001 93.3471 273.317 93.9818 273.457 94.7178C273.61 95.4468 273.556 96.229 273.296 97.0641C273.277 97.1252 273.25 97.195 273.215 97.2733C273.189 97.3547 273.16 97.4295 273.128 97.4977L266.238 95.3539L266.566 94.2997L272.692 96.2058L271.982 96.3871C272.154 95.8709 272.191 95.3742 272.094 94.897C271.997 94.4199 271.784 94.0075 271.457 93.6599C271.143 93.3052 270.726 93.0471 270.206 92.8854C269.697 92.727 269.207 92.7031 268.737 92.8138C268.27 92.9143 267.86 93.1384 267.506 93.4863C267.155 93.824 266.897 94.2577 266.732 94.7873L266.656 95.0317C266.488 95.5715 266.46 96.0934 266.571 96.5972C266.696 97.094 266.946 97.5292 267.321 97.9029C267.697 98.2766 268.175 98.5538 268.755 98.7344C269.234 98.8833 269.692 98.9365 270.13 98.894C270.578 98.8546 271 98.7179 271.397 98.4839L271.912 99.683C271.412 99.9967 270.852 100.18 270.233 100.233C269.623 100.289 268.982 100.213 268.31 100.003ZM276.213 102.462C275.541 102.253 274.928 101.962 274.374 101.588C273.83 101.218 273.426 100.847 273.162 100.474L274.134 99.5032C274.408 99.8452 274.774 100.177 275.232 100.498C275.691 100.82 276.185 101.063 276.715 101.228C277.397 101.44 277.916 101.495 278.272 101.394C278.637 101.295 278.874 101.073 278.982 100.727C279.061 100.472 279.031 100.245 278.892 100.045C278.753 99.8455 278.542 99.6626 278.259 99.4962C277.986 99.333 277.674 99.1689 277.323 99.0039C276.975 98.8287 276.631 98.6433 276.289 98.4478C275.951 98.242 275.653 98.0152 275.395 97.7674C275.14 97.5093 274.964 97.2143 274.866 96.8823C274.772 96.5401 274.797 96.1347 274.943 95.6662C275.095 95.1773 275.366 94.7923 275.755 94.5112C276.144 94.2301 276.618 94.0704 277.177 94.0322C277.75 93.9869 278.382 94.072 279.075 94.2875C279.605 94.4523 280.119 94.6849 280.617 94.9852C281.129 95.2786 281.522 95.5963 281.795 95.9383L280.808 96.9045C280.517 96.5459 280.188 96.2591 279.819 96.0438C279.45 95.8285 279.067 95.6591 278.67 95.5355C278.028 95.3359 277.516 95.2939 277.134 95.4095C276.755 95.515 276.515 95.7307 276.413 96.0566C276.328 96.3316 276.353 96.574 276.489 96.7839C276.638 96.9867 276.847 97.1747 277.117 97.3481C277.398 97.5247 277.712 97.7005 278.059 97.8757C278.41 98.0407 278.754 98.2261 279.093 98.4319C279.434 98.6274 279.728 98.8475 279.976 99.0922C280.234 99.3401 280.412 99.63 280.51 99.962C280.618 100.297 280.601 100.694 280.458 101.152C280.306 101.641 280.032 102.02 279.636 102.287C279.24 102.555 278.75 102.71 278.167 102.752C277.588 102.784 276.936 102.687 276.213 102.462ZM284.982 105.191C284.116 104.921 283.408 104.505 282.857 103.943C282.316 103.384 281.959 102.736 281.785 102.001C281.622 101.269 281.666 100.5 281.916 99.6958C282.167 98.8912 282.562 98.2321 283.101 97.7185C283.651 97.2081 284.285 96.8749 285.004 96.7187C285.736 96.5555 286.489 96.5944 287.263 96.8352C288.048 97.0792 288.686 97.4679 289.18 98.0011C289.673 98.5344 289.989 99.169 290.129 99.9051C290.282 100.634 290.228 101.416 289.969 102.251C289.95 102.312 289.922 102.382 289.887 102.461C289.861 102.542 289.832 102.617 289.8 102.685L282.91 100.541L283.238 99.487L289.364 101.393L288.654 101.574C288.826 101.058 288.863 100.561 288.766 100.084C288.669 99.6072 288.456 99.1948 288.129 98.8471C287.815 98.4925 287.398 98.2343 286.878 98.0727C286.369 97.9143 285.88 97.8904 285.409 98.001C284.942 98.1015 284.532 98.3257 284.178 98.6736C283.827 99.0113 283.569 99.4449 283.405 99.9745L283.329 100.219C283.161 100.759 283.132 101.281 283.244 101.784C283.368 102.281 283.618 102.716 283.994 103.09C284.369 103.464 284.847 103.741 285.427 103.922C285.906 104.071 286.364 104.124 286.802 104.081C287.25 104.042 287.672 103.905 288.069 103.671L288.584 104.87C288.084 105.184 287.524 105.367 286.905 105.42C286.295 105.476 285.654 105.4 284.982 105.191ZM295.394 108.33L295.927 106.619L295.95 106.274L296.858 103.356C297.051 102.735 297.017 102.199 296.755 101.749C296.506 101.292 296.02 100.95 295.297 100.725C294.818 100.577 294.324 100.512 293.815 100.533C293.309 100.543 292.857 100.631 292.459 100.798L292.19 99.5076C292.713 99.3014 293.291 99.2021 293.925 99.2096C294.573 99.21 295.218 99.3101 295.86 99.5097C296.97 99.8551 297.741 100.391 298.174 101.118C298.607 101.845 298.651 102.763 298.306 103.873L296.784 108.762L295.394 108.33ZM292.707 107.594C292.106 107.407 291.609 107.141 291.214 106.794C290.829 106.451 290.57 106.063 290.436 105.631C290.306 105.188 290.312 104.738 290.455 104.279C290.591 103.841 290.816 103.476 291.131 103.183C291.456 102.893 291.886 102.714 292.421 102.646C292.966 102.581 293.641 102.673 294.445 102.924L297.012 103.722L296.684 104.776L294.179 103.997C293.445 103.769 292.913 103.737 292.583 103.903C292.252 104.068 292.033 104.323 291.925 104.67C291.801 105.067 291.859 105.437 292.099 105.78C292.342 106.112 292.743 106.366 293.304 106.54C293.854 106.711 294.37 106.738 294.854 106.62C295.347 106.505 295.759 106.242 296.088 105.831L296.064 106.93C295.722 107.348 295.262 107.624 294.684 107.757C294.11 107.88 293.451 107.826 292.707 107.594ZM299.331 109.554L301.85 101.457L303.255 101.895L302.571 104.095L302.605 103.502C303.003 103.011 303.513 102.701 304.134 102.57C304.756 102.44 305.454 102.495 306.228 102.736L305.786 104.156C305.728 104.127 305.668 104.103 305.607 104.084C305.556 104.068 305.505 104.052 305.454 104.037C304.67 103.793 303.976 103.834 303.372 104.159C302.768 104.485 302.328 105.091 302.052 105.977L300.797 110.011L299.331 109.554ZM308.75 112.586C307.925 112.329 307.242 111.921 306.701 111.362C306.171 110.806 305.819 110.16 305.645 109.425C305.472 108.689 305.51 107.919 305.761 107.115C306.011 106.31 306.416 105.654 306.976 105.147C307.536 104.64 308.191 104.313 308.94 104.166C309.703 104.012 310.497 104.064 311.322 104.321C312.055 104.549 312.661 104.899 313.14 105.372C313.631 105.838 313.946 106.405 314.085 107.074L312.746 107.445C312.605 106.965 312.369 106.573 312.039 106.27C311.723 105.959 311.345 105.735 310.907 105.599C310.378 105.434 309.868 105.404 309.377 105.508C308.887 105.613 308.453 105.841 308.075 106.193C307.701 106.534 307.423 106.995 307.243 107.576C307.062 108.156 307.027 108.698 307.139 109.202C307.25 109.706 307.478 110.14 307.823 110.504C308.168 110.868 308.605 111.133 309.134 111.298C309.572 111.434 310.008 111.469 310.442 111.403C310.889 111.33 311.307 111.136 311.696 110.821L312.592 111.871C312.102 112.333 311.519 112.626 310.844 112.751C310.181 112.869 309.484 112.814 308.75 112.586ZM320.572 107.199C321.234 107.405 321.775 107.712 322.195 108.122C322.625 108.535 322.901 109.046 323.025 109.654C323.149 110.262 323.087 110.964 322.84 111.758L321.39 116.418L319.923 115.961L321.321 111.47C321.565 110.686 321.555 110.035 321.291 109.517C321.038 109.003 320.565 108.638 319.873 108.422C319.353 108.26 318.868 108.221 318.418 108.305C317.968 108.388 317.574 108.595 317.236 108.926C316.909 109.259 316.653 109.722 316.469 110.312L315.172 114.483L313.705 114.027L317.232 102.691L318.699 103.147L317.011 108.571L316.902 107.9C317.331 107.453 317.867 107.167 318.509 107.043C319.151 106.918 319.838 106.97 320.572 107.199ZM327.513 118.423C326.647 118.154 325.939 117.738 325.388 117.176C324.847 116.616 324.49 115.969 324.316 115.234C324.153 114.502 324.197 113.733 324.447 112.929C324.697 112.124 325.092 111.465 325.632 110.951C326.182 110.441 326.816 110.108 327.535 109.951C328.267 109.788 329.02 109.827 329.794 110.068C330.579 110.312 331.217 110.701 331.71 111.234C332.204 111.767 332.52 112.402 332.66 113.138C332.813 113.867 332.759 114.649 332.499 115.484C332.48 115.545 332.453 115.615 332.418 115.693C332.392 115.775 332.363 115.85 332.331 115.918L325.441 113.774L325.769 112.72L331.895 114.626L331.185 114.807C331.357 114.291 331.394 113.794 331.297 113.317C331.2 112.84 330.987 112.428 330.66 112.08C330.346 111.725 329.929 111.467 329.409 111.305C328.9 111.147 328.41 111.123 327.94 111.234C327.473 111.334 327.063 111.558 326.709 111.906C326.358 112.244 326.1 112.678 325.935 113.207L325.859 113.452C325.691 113.992 325.663 114.513 325.774 115.017C325.899 115.514 326.149 115.949 326.524 116.323C326.9 116.697 327.378 116.974 327.958 117.154C328.437 117.303 328.895 117.357 329.333 117.314C329.781 117.275 330.203 117.138 330.6 116.904L331.115 118.103C330.615 118.417 330.055 118.6 329.436 118.653C328.826 118.709 328.185 118.633 327.513 118.423ZM333.123 120.068L335.642 111.971L337.047 112.408L336.363 114.608L336.396 114.016C336.795 113.525 337.305 113.215 337.926 113.084C338.548 112.953 339.246 113.009 340.02 113.249L339.578 114.67C339.52 114.641 339.46 114.617 339.399 114.598C339.348 114.582 339.297 114.566 339.246 114.55C338.462 114.306 337.768 114.347 337.164 114.673C336.56 114.999 336.12 115.605 335.844 116.491L334.589 120.525L333.123 120.068Z" fill="#FEFEFE"/>
</g>
<g clip-path="url(#clip3_101_3819)">
<rect x="127.335" y="57.0872" width="208" height="40" rx="20" transform="rotate(-15.9297 127.335 57.0872)" fill="#8C6584"/>
<path d="M159.165 75.0406L156.091 64.2707L157.352 63.9106L164.507 70.6707L163.83 70.8639L166.276 61.3636L167.538 61.0035L170.627 71.769L169.15 72.1906L166.724 63.7483L167.078 63.6473L164.869 71.9982L164.161 72.2002L157.846 66.2821L158.231 66.1723L160.642 74.619L159.165 75.0406ZM178.536 69.5115L178.045 67.7884L177.875 67.4872L177.037 64.5486C176.858 63.9229 176.536 63.4935 176.07 63.2604C175.612 63.0141 175.018 62.9949 174.29 63.2028C173.808 63.3404 173.359 63.5571 172.945 63.853C172.527 64.1386 172.197 64.4601 171.955 64.8175L171.024 63.8854C171.348 63.4269 171.777 63.027 172.312 62.6858C172.854 62.3313 173.448 62.0619 174.095 61.8775C175.213 61.5584 176.152 61.5843 176.912 61.9552C177.672 62.3261 178.212 63.0705 178.531 64.1885L179.937 69.1119L178.536 69.5115ZM175.886 70.3679C175.281 70.5407 174.718 70.5903 174.198 70.5169C173.688 70.4406 173.259 70.2581 172.91 69.9693C172.558 69.6703 172.317 69.2901 172.185 68.8285C172.059 68.3874 172.048 67.9581 172.15 67.5406C172.263 67.1201 172.525 66.7348 172.935 66.3848C173.356 66.0318 173.971 65.7397 174.782 65.5084L177.366 64.7706L177.669 65.8322L175.146 66.5524C174.408 66.7632 173.945 67.0283 173.759 67.3476C173.573 67.667 173.53 68.001 173.629 68.3498C173.743 68.7498 173.995 69.0275 174.383 69.1829C174.768 69.3281 175.243 69.3202 175.807 69.1592C176.361 69.0011 176.808 68.7404 177.148 68.3771C177.498 68.0109 177.698 67.5656 177.748 67.041L178.33 67.973C178.273 68.5108 178.039 68.9935 177.629 69.4212C177.216 69.8386 176.634 70.1542 175.886 70.3679ZM182.501 68.3801L180.173 60.2257L181.589 59.8217L182.221 62.0373L181.925 61.5229C181.989 60.8943 182.246 60.3552 182.694 59.9055C183.143 59.4559 183.757 59.1198 184.536 58.8973L184.945 60.3281C184.88 60.3354 184.817 60.3479 184.756 60.3654C184.704 60.3801 184.653 60.3947 184.602 60.4094C183.812 60.6348 183.254 61.0493 182.927 61.6528C182.6 62.2564 182.564 63.0044 182.818 63.8967L183.978 67.9585L182.501 68.3801ZM189.175 64.3454L188.665 62.4442L192.133 56.8123L193.917 56.3029L191.327 60.8691L190.72 61.7744L189.175 64.3454ZM188.537 66.6573L185.278 55.2412L186.755 54.8196L190.014 66.2357L188.537 66.6573ZM194.768 64.8788L190.435 61.8227L191.05 60.3658L196.583 64.3606L194.768 64.8788ZM201.175 63.1499C200.303 63.3988 199.483 63.4388 198.714 63.2701C197.955 63.0985 197.301 62.7525 196.753 62.2322C196.216 61.709 195.831 61.0423 195.6 60.2319C195.369 59.4216 195.338 58.6539 195.508 57.9287C195.689 57.2005 196.037 56.5742 196.553 56.0499C197.076 55.5123 197.727 55.1322 198.507 54.9097C199.297 54.6843 200.044 54.6596 200.749 54.8356C201.453 55.0116 202.066 55.3693 202.586 55.9086C203.113 56.4348 203.497 57.1184 203.737 57.9595C203.754 58.021 203.77 58.0943 203.783 58.1793C203.806 58.2613 203.823 58.3397 203.833 58.4144L196.895 60.3949L196.592 59.3333L202.761 57.5724L202.267 58.1129C202.127 57.5869 201.887 57.1509 201.544 56.8051C201.201 56.4592 200.797 56.2305 200.333 56.119C199.876 55.9944 199.386 56.0067 198.863 56.156C198.35 56.3024 197.927 56.5506 197.594 56.9007C197.259 57.2405 197.038 57.6529 196.933 58.1378C196.824 58.6125 196.846 59.1166 196.998 59.6499L197.068 59.8961C197.223 60.4397 197.486 60.8918 197.855 61.2523C198.231 61.5997 198.679 61.8269 199.197 61.934C199.716 62.0411 200.268 62.0112 200.852 61.8443C201.334 61.7068 201.747 61.5003 202.09 61.2249C202.443 60.9466 202.722 60.6009 202.925 60.1878L204.013 60.909C203.767 61.4452 203.399 61.9051 202.909 62.2889C202.43 62.6697 201.852 62.9567 201.175 63.1499ZM209.596 60.7465C208.775 60.9807 208.076 60.9417 207.499 60.6295C206.922 60.3172 206.516 59.7508 206.282 58.9303L204.148 51.4529L205.625 51.0313L207.741 58.4471C207.867 58.8882 208.072 59.1959 208.354 59.3704C208.647 59.5419 208.999 59.5691 209.409 59.452C209.871 59.3202 210.219 59.0822 210.453 58.738L211.218 59.6679C211.048 59.9271 210.817 60.1483 210.525 60.3314C210.244 60.5115 209.934 60.6499 209.596 60.7465ZM203.619 54.8483L203.272 53.6328L208.473 52.1485L208.82 53.364L203.619 54.8483ZM212.97 59.6834L210.643 51.5291L212.12 51.1075L214.447 59.2619L212.97 59.6834ZM210.934 49.749C210.646 49.8309 210.379 49.8074 210.131 49.6784C209.894 49.5465 209.737 49.3472 209.661 49.0805C209.582 48.8036 209.609 48.5464 209.741 48.3091C209.883 48.0689 210.098 47.9077 210.385 47.8258C210.672 47.7438 210.934 47.7688 211.172 47.9007C211.416 48.0195 211.577 48.2122 211.653 48.4789C211.732 48.7558 211.707 49.0181 211.578 49.2656C211.446 49.503 211.231 49.6641 210.934 49.749ZM219.103 49.0312C219.77 48.8409 220.391 48.8023 220.967 48.9153C221.553 49.0253 222.064 49.3009 222.501 49.742C222.937 50.1832 223.27 50.8038 223.498 51.6038L224.837 56.2964L223.36 56.718L222.069 52.1946C221.844 51.4048 221.479 50.8656 220.975 50.5768C220.482 50.2851 219.886 50.2388 219.188 50.4378C218.665 50.5871 218.238 50.82 217.907 51.1364C217.576 51.4528 217.36 51.8417 217.258 52.3032C217.167 52.7618 217.207 53.2885 217.377 53.8834L218.575 58.0837L217.098 58.5053L214.771 50.3509L216.186 49.9469L216.814 52.147L216.417 51.6283C216.531 51.0188 216.823 50.4863 217.292 50.0307C217.761 49.5752 218.365 49.242 219.103 49.0312ZM231.849 57.6229C231.101 57.8366 230.342 57.9368 229.572 57.9234C228.816 57.9173 228.162 57.7823 227.61 57.5184L227.993 56.1779C228.466 56.3978 229.006 56.521 229.612 56.5476C230.222 56.5844 230.829 56.5164 231.434 56.3437C232.398 56.0685 233.042 55.6408 233.364 55.0607C233.687 54.4806 233.716 53.729 233.453 52.8058L232.961 51.0826L232.654 49.4232L232.111 47.8143L231.475 45.5834L232.875 45.1838L234.886 52.2304C235.296 53.6664 235.238 54.8253 234.713 55.7072C234.189 56.5891 233.234 57.2277 231.849 57.6229ZM230.69 54.26C229.9 54.4854 229.145 54.5233 228.426 54.3736C227.714 54.2108 227.088 53.8846 226.549 53.3951C226.021 52.9027 225.645 52.2667 225.422 51.4872C225.197 50.6974 225.18 49.9589 225.373 49.2718C225.572 48.5715 225.933 47.9694 226.454 47.4655C226.986 46.9587 227.647 46.5926 228.437 46.3672C229.135 46.1681 229.811 46.1302 230.468 46.2534C231.121 46.3664 231.701 46.667 232.206 47.155C232.722 47.6401 233.107 48.3289 233.361 49.2212C233.613 50.1033 233.648 50.8865 233.466 51.5707C233.295 52.2519 232.964 52.8233 232.475 53.2847C231.982 53.7358 231.387 54.0609 230.69 54.26ZM230.49 52.9193C231.034 52.7641 231.484 52.5137 231.84 52.168C232.196 51.8223 232.435 51.4158 232.557 50.9485C232.689 50.4782 232.68 49.9815 232.531 49.4584C232.381 48.9353 232.126 48.5088 231.766 48.179C231.416 47.8464 231 47.6323 230.518 47.537C230.033 47.4313 229.519 47.4561 228.975 47.6113C228.432 47.7664 227.977 48.0183 227.61 48.3669C227.251 48.7023 227.006 49.1052 226.874 49.5755C226.752 50.0428 226.766 50.5381 226.915 51.0612C227.064 51.5843 227.314 52.0122 227.664 52.3449C228.024 52.6747 228.447 52.8924 228.932 52.998C229.427 53.1007 229.947 53.0744 230.49 52.9193ZM244.183 50.8748C243.506 51.068 242.833 51.1601 242.165 51.1512C241.507 51.1393 240.966 51.0497 240.541 50.8826L240.823 49.5376C241.239 49.674 241.726 49.7511 242.286 49.7688C242.846 49.7865 243.392 49.7193 243.926 49.567C244.613 49.3709 245.078 49.1329 245.319 48.8532C245.571 48.5704 245.648 48.2547 245.548 47.906C245.475 47.6495 245.326 47.4759 245.1 47.385C244.874 47.2941 244.597 47.2566 244.269 47.2727C243.951 47.2858 243.6 47.3194 243.217 47.3735C242.83 47.4173 242.44 47.4509 242.047 47.4743C241.652 47.4873 241.278 47.4609 240.926 47.3948C240.572 47.3185 240.263 47.1683 239.999 46.944C239.732 46.7095 239.532 46.3564 239.397 45.8845C239.257 45.3922 239.272 44.9219 239.444 44.4736C239.615 44.0253 239.925 43.632 240.372 43.2936C240.826 42.9421 241.402 42.6668 242.099 42.4677C242.633 42.3155 243.19 42.2285 243.772 42.2067C244.361 42.1717 244.863 42.2224 245.279 42.3587L244.982 43.7081C244.543 43.5673 244.11 43.5078 243.683 43.5297C243.257 43.5516 242.844 43.6196 242.444 43.7338C241.798 43.9182 241.346 44.1635 241.09 44.4696C240.83 44.7655 240.748 45.0776 240.841 45.4058C240.92 45.6828 241.074 45.8718 241.303 45.973C241.538 46.0609 241.817 46.1035 242.138 46.1007C242.469 46.0949 242.828 46.0701 243.215 46.0262C243.599 45.9721 243.988 45.9385 244.384 45.9255C244.777 45.9021 245.144 45.9249 245.485 45.9939C245.837 46.0599 246.144 46.2051 246.408 46.4293C246.682 46.6506 246.885 46.9921 247.016 47.4536C247.157 47.946 247.135 48.4126 246.95 48.8536C246.765 49.2946 246.441 49.6923 245.976 50.0467C245.509 50.3909 244.911 50.6669 244.183 50.8748ZM253.706 48.1567C253.029 48.3499 252.364 48.3731 251.712 48.2264C251.068 48.0666 250.488 47.7272 249.974 47.2084C249.47 46.6867 249.087 45.9642 248.823 45.0411C248.56 44.1179 248.499 43.3033 248.642 42.5971C248.794 41.888 249.103 41.3006 249.569 40.8348C250.046 40.366 250.633 40.0321 251.33 39.8331C252.13 39.6047 252.888 39.5771 253.603 39.7502C254.318 39.9232 254.944 40.2714 255.481 40.7946C256.016 41.3076 256.402 41.9795 256.639 42.8103C256.876 43.6411 256.905 44.4206 256.724 45.1487C256.544 45.8769 256.196 46.5032 255.68 47.0275C255.164 47.5519 254.506 47.9283 253.706 48.1567ZM250.208 52.2831L247.029 41.1439L248.444 40.7399L249.072 42.9401L249.52 44.8589L250.214 46.7074L251.685 51.8615L250.208 52.2831ZM253.214 46.8994C253.737 46.7501 254.17 46.4989 254.513 46.1459C254.866 45.79 255.099 45.3629 255.212 44.8648C255.333 44.3535 255.311 43.8106 255.147 43.2362C254.98 42.6516 254.713 42.1841 254.347 41.8339C253.988 41.4704 253.565 41.2307 253.077 41.1148C252.599 40.996 252.099 41.0113 251.576 41.1606C251.063 41.307 250.63 41.5581 250.277 41.9141C249.934 42.2671 249.701 42.6941 249.578 43.1952C249.462 43.683 249.487 44.2193 249.654 44.804C249.818 45.3783 250.081 45.8524 250.443 46.2261C250.812 46.5867 251.235 46.8263 251.713 46.9451C252.201 47.061 252.701 47.0458 253.214 46.8994ZM263.332 45.4093C262.46 45.6581 261.639 45.6982 260.87 45.5295C260.111 45.3578 259.458 45.0119 258.91 44.4916C258.372 43.9684 257.988 43.3016 257.757 42.4913C257.526 41.681 257.495 40.9132 257.665 40.188C257.846 39.4599 258.194 38.8336 258.71 38.3092C259.233 37.7716 259.884 37.3916 260.664 37.1691C261.453 36.9437 262.201 36.919 262.905 37.095C263.61 37.271 264.222 37.6287 264.742 38.168C265.27 38.6941 265.653 39.3778 265.894 40.2188C265.911 40.2804 265.926 40.3536 265.94 40.4386C265.963 40.5207 265.98 40.5991 265.99 40.6738L259.051 42.6543L258.748 41.5927L264.918 39.8318L264.423 40.3723C264.284 39.8462 264.043 39.4103 263.7 39.0644C263.358 38.7185 262.954 38.4899 262.49 38.3784C262.033 38.2537 261.543 38.266 261.019 38.4153C260.507 38.5617 260.084 38.8099 259.751 39.16C259.415 39.4999 259.195 39.9122 259.089 40.3972C258.981 40.8719 259.002 41.3759 259.155 41.9093L259.225 42.1554C259.38 42.6991 259.642 43.1511 260.011 43.5117C260.388 43.859 260.835 44.0863 261.354 44.1934C261.873 44.3005 262.424 44.2706 263.009 44.1037C263.491 43.9661 263.904 43.7596 264.247 43.4843C264.6 43.206 264.878 42.8603 265.082 42.4472L266.17 43.1683C265.923 43.7045 265.555 44.1645 265.066 44.5482C264.587 44.929 264.009 45.216 263.332 45.4093ZM272.506 42.7907C271.675 43.0278 270.881 43.0606 270.122 42.8889C269.373 42.7144 268.725 42.367 268.177 41.8467C267.629 41.3264 267.239 40.6611 267.008 39.8508C266.777 39.0405 266.757 38.2698 266.947 37.5387C267.138 36.8076 267.507 36.1755 268.053 35.6423C268.607 35.096 269.3 34.7042 270.131 34.4671C270.869 34.2563 271.568 34.2177 272.227 34.3512C272.894 34.4715 273.468 34.7735 273.95 35.2571L273.033 36.3008C272.652 35.9769 272.241 35.7783 271.798 35.7049C271.363 35.6183 270.925 35.638 270.484 35.7639C269.951 35.9161 269.507 36.1702 269.154 36.5261C268.801 36.8821 268.563 37.3106 268.44 37.8116C268.313 38.3024 268.334 38.8402 268.501 39.4248C268.667 40.0095 268.935 40.4821 269.305 40.8426C269.674 41.2031 270.102 41.4413 270.59 41.5572C271.078 41.6731 271.589 41.6549 272.122 41.5027C272.563 41.3768 272.947 41.1674 273.274 40.8745C273.608 40.5683 273.851 40.1772 274.004 39.701L275.329 40.0882C275.172 40.7431 274.845 41.3078 274.348 41.7824C273.859 42.2438 273.245 42.5799 272.506 42.7907ZM277.441 41.2824L275.114 33.128L276.591 32.7065L278.918 40.8608L277.441 41.2824ZM275.404 31.3479C275.117 31.4299 274.85 31.4064 274.602 31.2774C274.365 31.1454 274.208 30.9461 274.132 30.6794C274.053 30.4025 274.079 30.1454 274.211 29.908C274.353 29.6678 274.568 29.5067 274.855 29.4247C275.142 29.3427 275.405 29.3677 275.642 29.4997C275.887 29.6184 276.047 29.8111 276.123 30.0778C276.202 30.3547 276.177 30.617 276.048 30.8646C275.916 31.1019 275.702 31.263 275.404 31.3479ZM286.631 38.6595L286.139 36.9363L285.97 36.6351L285.131 33.6965C284.952 33.0708 284.63 32.6414 284.164 32.4083C283.706 32.1621 283.112 32.1428 282.384 32.3507C281.902 32.4883 281.454 32.705 281.039 33.0009C280.621 33.2865 280.292 33.608 280.05 33.9654L279.118 33.0333C279.442 32.5748 279.871 32.1749 280.406 31.8337C280.949 31.4793 281.543 31.2098 282.189 31.0254C283.307 30.7063 284.246 30.7322 285.006 31.1031C285.767 31.474 286.307 32.2184 286.626 33.3365L288.031 38.2599L286.631 38.6595ZM283.98 39.5159C283.375 39.6886 282.812 39.7383 282.292 39.6649C281.782 39.5885 281.353 39.406 281.004 39.1173C280.653 38.8183 280.411 38.438 280.279 37.9764C280.154 37.5354 280.142 37.1061 280.245 36.6885C280.358 36.268 280.619 35.8828 281.03 35.5327C281.45 35.1797 282.066 34.8876 282.876 34.6563L285.461 33.9186L285.764 34.9802L283.24 35.7003C282.502 35.9111 282.04 36.1762 281.853 36.4956C281.667 36.8149 281.624 37.149 281.723 37.4977C281.838 37.8977 282.089 38.1754 282.477 38.3309C282.862 38.476 283.337 38.4681 283.901 38.3071C284.455 38.149 284.902 37.8883 285.242 37.525C285.592 37.1588 285.792 36.7135 285.842 36.189L286.425 37.121C286.367 37.6587 286.133 38.1414 285.723 38.5691C285.31 38.9866 284.729 39.3022 283.98 39.5159ZM290.595 37.528L287.337 26.1119L288.814 25.6903L292.072 37.1064L290.595 37.528ZM294.723 36.3498L292.395 28.1955L293.872 27.7739L296.2 35.9283L294.723 36.3498ZM292.686 26.4154C292.399 26.4973 292.131 26.4738 291.884 26.3448C291.647 26.2129 291.49 26.0136 291.414 25.7469C291.335 25.4699 291.361 25.2128 291.493 24.9755C291.635 24.7352 291.85 24.5741 292.137 24.4922C292.424 24.4102 292.687 24.4352 292.924 24.5671C293.169 24.6858 293.329 24.8786 293.405 25.1452C293.484 25.4222 293.459 25.6844 293.33 25.932C293.198 26.1693 292.984 26.3305 292.686 26.4154ZM301.216 34.5965C300.539 34.7897 299.866 34.8818 299.198 34.8729C298.54 34.861 297.999 34.7714 297.574 34.6043L297.856 33.2593C298.272 33.3957 298.76 33.4728 299.319 33.4905C299.879 33.5082 300.426 33.441 300.959 33.2887C301.646 33.0926 302.111 32.8546 302.353 32.5748C302.605 32.2921 302.681 31.9764 302.581 31.6277C302.508 31.3712 302.359 31.1976 302.133 31.1067C301.908 31.0158 301.631 30.9783 301.302 30.9944C300.984 31.0075 300.634 31.0411 300.25 31.0952C299.863 31.139 299.473 31.1726 299.08 31.196C298.685 31.209 298.311 31.1826 297.96 31.1165C297.605 31.0402 297.296 30.89 297.032 30.6657C296.766 30.4312 296.565 30.0781 296.43 29.6062C296.29 29.1139 296.305 28.6436 296.477 28.1953C296.648 27.747 296.958 27.3537 297.405 27.0153C297.859 26.6638 298.435 26.3885 299.132 26.1894C299.666 26.0372 300.223 25.9502 300.805 25.9284C301.394 25.8934 301.896 25.9441 302.313 26.0804L302.015 27.4298C301.576 27.289 301.143 27.2295 300.717 27.2514C300.29 27.2733 299.877 27.3413 299.477 27.4555C298.831 27.6399 298.38 27.8852 298.123 28.1913C297.864 28.4872 297.781 28.7993 297.874 29.1275C297.953 29.4045 298.107 29.5935 298.336 29.6947C298.572 29.7826 298.85 29.8252 299.171 29.8224C299.502 29.8166 299.861 29.7918 300.248 29.7479C300.632 29.6938 301.021 29.6602 301.417 29.6472C301.81 29.6238 302.177 29.6466 302.518 29.7156C302.87 29.7816 303.177 29.9268 303.441 30.151C303.715 30.3723 303.918 30.7138 304.05 31.1753C304.19 31.6677 304.168 32.1343 303.983 32.5753C303.799 33.0163 303.474 33.414 303.009 33.7684C302.542 34.1126 301.944 34.3886 301.216 34.5965ZM309.216 32.3131C308.395 32.5473 307.696 32.5083 307.119 32.196C306.542 31.8838 306.136 31.3174 305.902 30.4968L303.768 23.0194L305.245 22.5979L307.362 30.0137C307.487 30.4548 307.692 30.7625 307.975 30.937C308.268 31.1085 308.619 31.1357 309.029 31.0186C309.491 30.8868 309.839 30.6488 310.074 30.3046L310.838 31.2344C310.668 31.4937 310.437 31.7149 310.146 31.898C309.864 32.0781 309.554 32.2165 309.216 32.3131ZM303.24 26.4148L302.893 25.1994L308.093 23.7151L308.44 24.9306L303.24 26.4148Z" fill="#FEFEFE"/>
</g>
<rect x="166.638" y="128" width="180" height="40" rx="20" transform="rotate(3.30125 166.638 128)" fill="#D84C10"/>
<path d="M190.779 155.436L191.424 144.254L196.439 144.544C197.728 144.618 198.703 144.936 199.365 145.498C200.028 146.049 200.333 146.772 200.282 147.666C200.247 148.273 200.079 148.776 199.778 149.176C199.488 149.576 199.107 149.874 198.637 150.071C198.166 150.269 197.664 150.352 197.132 150.321L197.447 149.859C198.086 149.895 198.644 150.04 199.121 150.292C199.598 150.544 199.967 150.896 200.23 151.349C200.493 151.792 200.606 152.333 200.569 152.971C200.513 153.93 200.108 154.654 199.354 155.145C198.61 155.626 197.53 155.825 196.114 155.744L190.779 155.436ZM192.451 154.234L196.124 154.446C197.008 154.497 197.693 154.387 198.179 154.116C198.665 153.845 198.926 153.39 198.963 152.751C199 152.101 198.793 151.614 198.342 151.288C197.891 150.963 197.223 150.775 196.339 150.724L192.522 150.504L192.596 149.21L196.014 149.407C196.824 149.454 197.461 149.341 197.925 149.069C198.39 148.796 198.639 148.362 198.673 147.766C198.708 147.169 198.51 146.709 198.08 146.385C197.65 146.061 197.03 145.876 196.221 145.829L192.946 145.64L192.451 154.234ZM206.025 156.411C205.301 156.37 204.67 156.2 204.131 155.901C203.604 155.604 203.201 155.175 202.923 154.614C202.657 154.043 202.548 153.342 202.596 152.511L202.877 147.64L204.41 147.728L204.14 152.424C204.092 153.255 204.253 153.889 204.623 154.327C205.004 154.766 205.556 155.006 206.28 155.048C206.812 155.079 207.282 154.999 207.688 154.808C208.095 154.608 208.417 154.306 208.654 153.903C208.891 153.489 209.027 152.984 209.062 152.388L209.314 148.011L210.848 148.099L210.359 156.565L208.906 156.481L209.038 154.197L209.242 154.818C208.933 155.366 208.492 155.779 207.921 156.056C207.349 156.333 206.717 156.451 206.025 156.411ZM215.525 156.959C214.823 156.919 214.157 156.784 213.529 156.556C212.912 156.328 212.43 156.065 212.084 155.767L212.793 154.59C213.141 154.856 213.577 155.089 214.099 155.29C214.622 155.492 215.16 155.608 215.714 155.64C216.427 155.681 216.944 155.609 217.265 155.425C217.596 155.241 217.772 154.968 217.793 154.606C217.808 154.34 217.724 154.127 217.541 153.966C217.358 153.806 217.109 153.68 216.794 153.587C216.489 153.494 216.147 153.411 215.767 153.335C215.387 153.249 215.008 153.153 214.629 153.045C214.252 152.927 213.907 152.779 213.597 152.601C213.288 152.412 213.045 152.169 212.87 151.87C212.696 151.561 212.623 151.161 212.651 150.671C212.68 150.16 212.85 149.721 213.159 149.354C213.469 148.988 213.891 148.718 214.424 148.546C214.969 148.364 215.603 148.293 216.327 148.335C216.881 148.367 217.436 148.469 217.993 148.64C218.56 148.801 219.018 149.014 219.366 149.28L218.641 150.456C218.272 150.178 217.883 149.98 217.474 149.86C217.064 149.74 216.651 149.668 216.236 149.644C215.565 149.605 215.058 149.688 214.715 149.893C214.373 150.087 214.192 150.354 214.172 150.695C214.155 150.983 214.238 151.212 214.421 151.382C214.614 151.543 214.863 151.675 215.167 151.778C215.482 151.882 215.829 151.977 216.209 152.063C216.589 152.138 216.968 152.235 217.346 152.353C217.724 152.46 218.063 152.602 218.363 152.78C218.673 152.958 218.916 153.196 219.091 153.495C219.277 153.794 219.356 154.183 219.328 154.663C219.299 155.174 219.124 155.607 218.804 155.963C218.485 156.318 218.047 156.587 217.492 156.768C216.937 156.939 216.282 157.003 215.525 156.959ZM220.93 157.175L221.418 148.709L222.951 148.797L222.463 157.263L220.93 157.175ZM222.279 147.124C221.98 147.107 221.736 146.996 221.544 146.793C221.364 146.59 221.282 146.351 221.297 146.074C221.314 145.786 221.424 145.552 221.626 145.371C221.84 145.191 222.096 145.11 222.394 145.127C222.692 145.144 222.931 145.254 223.112 145.457C223.304 145.65 223.392 145.885 223.376 146.162C223.359 146.449 223.249 146.688 223.046 146.88C222.843 147.06 222.587 147.142 222.279 147.124ZM230.229 149.137C230.921 149.177 231.52 149.345 232.027 149.641C232.544 149.938 232.936 150.367 233.203 150.927C233.469 151.488 233.579 152.183 233.531 153.014L233.25 157.886L231.716 157.797L231.987 153.101C232.035 152.281 231.868 151.652 231.487 151.213C231.117 150.775 230.57 150.535 229.846 150.493C229.303 150.462 228.823 150.541 228.406 150.731C227.989 150.92 227.657 151.216 227.409 151.619C227.172 152.022 227.036 152.532 227 153.15L226.749 157.511L225.215 157.422L225.704 148.956L227.173 149.041L227.041 151.325L226.837 150.704C227.146 150.167 227.596 149.76 228.189 149.484C228.782 149.209 229.462 149.093 230.229 149.137ZM239.676 158.352C238.771 158.3 237.983 158.068 237.313 157.655C236.652 157.243 236.15 156.701 235.804 156.03C235.468 155.358 235.325 154.602 235.374 153.761C235.422 152.92 235.646 152.185 236.046 151.556C236.456 150.928 236.991 150.451 237.651 150.126C238.322 149.791 239.062 149.647 239.871 149.693C240.691 149.741 241.405 149.963 242.012 150.362C242.62 150.76 243.08 151.299 243.393 151.98C243.718 152.65 243.855 153.422 243.805 154.295C243.801 154.359 243.791 154.434 243.776 154.518C243.771 154.603 243.761 154.683 243.746 154.757L236.542 154.341L236.606 153.239L243.011 153.609L242.366 153.956C242.408 153.414 242.324 152.923 242.114 152.483C241.905 152.044 241.599 151.695 241.197 151.437C240.807 151.168 240.34 151.018 239.797 150.987C239.264 150.956 238.783 151.052 238.354 151.273C237.925 151.483 237.581 151.8 237.321 152.223C237.063 152.635 236.917 153.118 236.885 153.672L236.87 153.928C236.838 154.492 236.937 155.005 237.166 155.467C237.407 155.919 237.755 156.281 238.209 156.553C238.664 156.825 239.195 156.978 239.802 157.013C240.302 157.042 240.76 156.983 241.174 156.836C241.599 156.69 241.976 156.455 242.305 156.132L243.094 157.171C242.685 157.596 242.186 157.91 241.597 158.111C241.019 158.312 240.379 158.393 239.676 158.352ZM247.939 158.829C247.237 158.789 246.571 158.654 245.943 158.425C245.326 158.198 244.844 157.935 244.498 157.637L245.207 156.46C245.555 156.726 245.991 156.959 246.513 157.16C247.036 157.361 247.574 157.478 248.128 157.51C248.841 157.551 249.358 157.479 249.679 157.295C250.01 157.111 250.186 156.838 250.207 156.476C250.222 156.209 250.138 155.996 249.955 155.836C249.772 155.676 249.523 155.549 249.208 155.456C248.903 155.364 248.561 155.28 248.181 155.205C247.801 155.119 247.422 155.022 247.043 154.915C246.666 154.797 246.321 154.649 246.011 154.471C245.702 154.282 245.459 154.038 245.284 153.74C245.11 153.43 245.037 153.031 245.065 152.541C245.094 152.03 245.264 151.591 245.573 151.224C245.883 150.857 246.305 150.588 246.838 150.416C247.383 150.233 248.017 150.163 248.741 150.205C249.295 150.237 249.85 150.338 250.407 150.509C250.974 150.67 251.432 150.884 251.78 151.149L251.055 152.326C250.686 152.048 250.297 151.849 249.888 151.729C249.478 151.61 249.065 151.538 248.65 151.514C247.979 151.475 247.472 151.558 247.129 151.763C246.787 151.957 246.606 152.224 246.586 152.565C246.569 152.852 246.652 153.081 246.835 153.252C247.028 153.413 247.277 153.545 247.581 153.648C247.896 153.751 248.243 153.846 248.623 153.932C249.003 154.008 249.382 154.104 249.76 154.222C250.138 154.33 250.477 154.472 250.777 154.65C251.087 154.828 251.33 155.066 251.505 155.365C251.691 155.664 251.77 156.053 251.742 156.532C251.713 157.043 251.538 157.477 251.218 157.832C250.899 158.188 250.461 158.456 249.906 158.638C249.351 158.809 248.696 158.873 247.939 158.829ZM255.766 159.281C255.063 159.24 254.398 159.105 253.77 158.877C253.153 158.649 252.671 158.386 252.325 158.088L253.034 156.911C253.382 157.177 253.817 157.411 254.34 157.612C254.862 157.813 255.401 157.929 255.954 157.961C256.668 158.002 257.185 157.931 257.505 157.746C257.836 157.562 258.012 157.289 258.033 156.927C258.049 156.661 257.965 156.448 257.782 156.288C257.599 156.127 257.35 156.001 257.034 155.908C256.73 155.816 256.387 155.732 256.007 155.656C255.627 155.57 255.248 155.474 254.87 155.366C254.492 155.248 254.148 155.1 253.838 154.922C253.528 154.733 253.286 154.49 253.111 154.191C252.936 153.882 252.863 153.482 252.891 152.993C252.921 152.481 253.09 152.042 253.4 151.676C253.71 151.309 254.131 151.039 254.665 150.867C255.209 150.685 255.844 150.615 256.568 150.656C257.122 150.688 257.677 150.79 258.233 150.961C258.801 151.122 259.259 151.335 259.607 151.601L258.882 152.777C258.513 152.499 258.124 152.301 257.714 152.181C257.304 152.061 256.892 151.989 256.476 151.965C255.806 151.927 255.299 152.01 254.956 152.214C254.613 152.408 254.432 152.675 254.413 153.016C254.396 153.304 254.479 153.533 254.661 153.704C254.855 153.864 255.104 153.996 255.408 154.099C255.722 154.203 256.069 154.298 256.449 154.384C256.829 154.459 257.209 154.556 257.586 154.674C257.965 154.781 258.304 154.923 258.603 155.101C258.914 155.279 259.156 155.517 259.331 155.816C259.517 156.115 259.596 156.504 259.569 156.984C259.539 157.495 259.365 157.928 259.045 158.284C258.725 158.639 258.288 158.908 257.732 159.089C257.178 159.26 256.522 159.324 255.766 159.281ZM270.54 160.036L270.643 158.247L270.582 157.907L270.758 154.856C270.796 154.207 270.633 153.695 270.27 153.322C269.918 152.938 269.364 152.725 268.608 152.681C268.107 152.652 267.613 152.709 267.124 152.852C266.635 152.984 266.218 153.179 265.872 153.437L265.299 152.25C265.756 151.924 266.293 151.687 266.911 151.541C267.539 151.385 268.189 151.327 268.86 151.365C270.021 151.432 270.899 151.766 271.495 152.367C272.091 152.967 272.355 153.848 272.288 155.009L271.993 160.12L270.54 160.036ZM267.755 159.972C267.126 159.936 266.579 159.797 266.112 159.557C265.656 159.317 265.31 159.003 265.076 158.616C264.843 158.217 264.74 157.779 264.768 157.3C264.794 156.842 264.924 156.433 265.159 156.072C265.404 155.712 265.778 155.435 266.281 155.239C266.794 155.045 267.471 154.971 268.313 155.02L270.996 155.175L270.933 156.277L268.313 156.126C267.546 156.082 267.022 156.18 266.741 156.42C266.461 156.66 266.31 156.961 266.289 157.323C266.265 157.739 266.41 158.083 266.726 158.358C267.042 158.622 267.493 158.771 268.078 158.805C268.653 158.838 269.161 158.739 269.602 158.508C270.053 158.278 270.389 157.923 270.609 157.444L270.852 158.516C270.62 159.005 270.241 159.384 269.712 159.652C269.185 159.91 268.532 160.017 267.755 159.972ZM279.669 151.989C280.361 152.029 280.96 152.197 281.467 152.493C281.984 152.79 282.376 153.219 282.642 153.779C282.909 154.339 283.019 155.035 282.971 155.865L282.69 160.737L281.156 160.649L281.427 155.953C281.475 155.133 281.308 154.503 280.927 154.065C280.557 153.627 280.01 153.387 279.286 153.345C278.743 153.314 278.263 153.393 277.846 153.583C277.429 153.772 277.097 154.068 276.849 154.471C276.612 154.874 276.476 155.384 276.44 156.002L276.189 160.362L274.655 160.274L275.144 151.808L276.613 151.893L276.481 154.177L276.277 153.556C276.586 153.018 277.036 152.612 277.629 152.336C278.222 152.06 278.902 151.945 279.669 151.989ZM290.607 161.194L290.71 159.405L290.65 159.065L290.826 156.014C290.863 155.364 290.701 154.853 290.338 154.479C289.986 154.096 289.432 153.882 288.676 153.839C288.175 153.81 287.68 153.867 287.191 154.009C286.703 154.141 286.286 154.336 285.94 154.594L285.367 153.407C285.824 153.081 286.361 152.845 286.978 152.699C287.607 152.543 288.257 152.484 288.928 152.523C290.089 152.59 290.967 152.924 291.563 153.524C292.158 154.125 292.423 155.006 292.356 156.166L292.061 161.278L290.607 161.194ZM287.822 161.13C287.194 161.093 286.646 160.955 286.18 160.714C285.723 160.474 285.378 160.161 285.144 159.773C284.911 159.375 284.808 158.936 284.835 158.457C284.862 157.999 284.992 157.59 285.227 157.23C285.472 156.87 285.846 156.592 286.348 156.397C286.862 156.202 287.539 156.129 288.38 156.177L291.064 156.332L291 157.434L288.381 157.283C287.614 157.239 287.09 157.337 286.809 157.577C286.528 157.818 286.377 158.119 286.356 158.481C286.333 158.896 286.478 159.241 286.794 159.516C287.11 159.78 287.56 159.928 288.146 159.962C288.721 159.995 289.229 159.897 289.67 159.666C290.121 159.435 290.457 159.081 290.677 158.602L290.919 159.673C290.688 160.162 290.308 160.541 289.78 160.81C289.252 161.068 288.6 161.174 287.822 161.13ZM294.723 161.431L295.407 149.579L296.94 149.668L296.256 161.52L294.723 161.431ZM299.192 164.895C298.787 164.871 298.397 164.779 298.022 164.619C297.646 164.469 297.327 164.258 297.064 163.987L297.786 162.874C297.987 163.089 298.212 163.257 298.462 163.378C298.711 163.499 298.98 163.568 299.267 163.585C299.64 163.606 299.954 163.528 300.21 163.351C300.466 163.173 300.715 162.845 300.956 162.368L301.551 161.232L301.721 161.05L305.487 153.558L306.988 153.645L302.346 162.721C302.067 163.303 301.763 163.755 301.434 164.078C301.117 164.402 300.773 164.622 300.403 164.74C300.032 164.868 299.628 164.92 299.192 164.895ZM301.373 162.087L298.011 153.127L299.609 153.219L302.464 160.948L301.373 162.087ZM310.069 162.413C309.366 162.372 308.701 162.238 308.073 162.009C307.455 161.781 306.974 161.518 306.628 161.221L307.337 160.044C307.685 160.309 308.12 160.543 308.643 160.744C309.165 160.945 309.703 161.061 310.257 161.093C310.971 161.135 311.488 161.063 311.808 160.878C312.139 160.694 312.315 160.421 312.336 160.059C312.351 159.793 312.268 159.58 312.084 159.42C311.901 159.26 311.652 159.133 311.337 159.04C311.033 158.948 310.69 158.864 310.31 158.789C309.93 158.703 309.551 158.606 309.173 158.499C308.795 158.381 308.451 158.233 308.141 158.054C307.831 157.866 307.589 157.622 307.413 157.323C307.239 157.014 307.166 156.615 307.194 156.125C307.224 155.614 307.393 155.175 307.703 154.808C308.012 154.441 308.434 154.172 308.967 153.999C309.512 153.817 310.147 153.747 310.871 153.789C311.424 153.821 311.98 153.922 312.536 154.093C313.104 154.254 313.561 154.467 313.909 154.733L313.184 155.909C312.816 155.632 312.427 155.433 312.017 155.313C311.607 155.193 311.195 155.121 310.779 155.098C310.108 155.059 309.601 155.142 309.258 155.346C308.916 155.54 308.735 155.808 308.715 156.148C308.699 156.436 308.782 156.665 308.964 156.836C309.158 156.997 309.407 157.129 309.711 157.232C310.025 157.335 310.372 157.43 310.752 157.516C311.132 157.591 311.511 157.688 311.889 157.806C312.268 157.913 312.607 158.056 312.906 158.233C313.216 158.411 313.459 158.65 313.634 158.948C313.82 159.248 313.899 159.637 313.871 160.116C313.842 160.627 313.667 161.06 313.348 161.416C313.028 161.771 312.59 162.04 312.035 162.222C311.48 162.393 310.825 162.456 310.069 162.413ZM318.375 162.892C317.523 162.843 316.876 162.576 316.434 162.091C315.991 161.606 315.795 160.937 315.844 160.085L316.292 152.322L317.825 152.411L317.381 160.11C317.355 160.568 317.446 160.926 317.656 161.184C317.876 161.442 318.199 161.584 318.625 161.608C319.104 161.636 319.511 161.526 319.846 161.278L320.262 162.408C320.016 162.597 319.725 162.729 319.389 162.806C319.064 162.884 318.726 162.912 318.375 162.892ZM314.675 155.354L314.747 154.092L320.146 154.404L320.074 155.666L314.675 155.354Z" fill="#FEFEFE"/>
<defs>
<clipPath id="clip0_101_3819">
<rect x="12.1514" y="24.53" width="130" height="40" rx="20" transform="rotate(17.181 12.1514 24.53)" fill="white"/>
</clipPath>
<clipPath id="clip1_101_3819">
<rect x="75.96" y="84.53" width="121" height="40" rx="20" transform="rotate(36.2025 75.96 84.53)" fill="white"/>
</clipPath>
<clipPath id="clip2_101_3819">
<rect x="237.218" y="63" width="138" height="40" rx="20" transform="rotate(17.2826 237.218 63)" fill="white"/>
</clipPath>
<clipPath id="clip3_101_3819">
<rect x="127.335" y="57.0872" width="208" height="40" rx="20" transform="rotate(-15.9297 127.335 57.0872)" fill="white"/>
</clipPath>
</defs>
</svg>
