<?xml version="1.0" encoding="UTF-8" standalone="no" ?>
<!DOCTYPE svg PUBLIC "-//W3C//DTD SVG 1.1//EN" "http://www.w3.org/Graphics/SVG/1.1/DTD/svg11.dtd">
<svg xmlns="http://www.w3.org/2000/svg" xmlns:xlink="http://www.w3.org/1999/xlink" version="1.1" width="423" height="120" viewBox="0 0 423 120" xml:space="preserve">
<desc>Created with Fabric.js 5.3.0</desc>
<defs>
</defs>
<g transform="matrix(1 0 0 1 211.9901960784 -87.4901960784)" id="avBfg5c9Eal8pomCcpN7p"  >
<g style=""   >
		<g transform="matrix(1 0 0 1 -67 -27.2865)" id="eySpgTyaRI20idzZz_mvU"  >
<path style="stroke: rgb(255,255,255); stroke-width: 1; stroke-dasharray: none; stroke-linecap: butt; stroke-dashoffset: 0; stroke-linejoin: miter; stroke-miterlimit: 4; fill: none; fill-rule: nonzero; opacity: 1;"  transform=" translate(-144.5, -179.7135)" d="M -53 0 L -53 159.427 C -53 269.884 36.5431 359.427 147 359.427 L 342 359.427" stroke-linecap="round" />
</g>
		<g transform="matrix(1 0 0 1 121.647 150.4925)" id="zAMvQY-JYhhpN2wO3-ALw"  >
<linearGradient id="SVGID_0" gradientUnits="userSpaceOnUse" gradientTransform="matrix(1 0 0 1 0 0)"  x1="400.129" y1="356.402" x2="254.8" y2="365.252">
<stop offset="0%" style="stop-color:rgb(154,0,226);stop-opacity: 1"/>
<stop offset="77.8284%" style="stop-color:rgb(221,149,255);stop-opacity: 1"/>
</linearGradient>
<path style="stroke: none; stroke-width: 1; stroke-dasharray: none; stroke-linecap: butt; stroke-dashoffset: 0; stroke-linejoin: miter; stroke-miterlimit: 4; fill: url(#SVGID_0); fill-rule: nonzero; opacity: 1;"  transform=" translate(-333.147, -357.4925)" d="M 363.717 387.432 L 345.152 327.553 L 302.577 373.57 L 363.717 387.432 Z" stroke-linecap="round" />
</g>
		<g transform="matrix(1 0 0 1 122.7525 151.973)" id="YOzcVkBqoJm25EYLiNesJ"  >
<linearGradient id="SVGID_1" gradientUnits="userSpaceOnUse" gradientTransform="matrix(1 0 0 1 0 0)"  x1="363.717" y1="387.432" x2="310.58" y2="338.271">
<stop offset="0%" style="stop-color:rgb(199,79,255);stop-opacity: 1"/>
<stop offset="100%" style="stop-color:rgb(160,0,235);stop-opacity: 1"/>
</linearGradient>
<path style="stroke: url(#SVGID_1); stroke-width: 10; stroke-dasharray: none; stroke-linecap: butt; stroke-dashoffset: 0; stroke-linejoin: miter; stroke-miterlimit: 4; fill: none; fill-rule: nonzero; opacity: 1;"  transform=" translate(-334.2525, -358.973)" d="M 312.129 370.609 L 356.376 380.641 L 342.94 337.305 L 312.129 370.609 Z" stroke-linecap="round" />
</g>
		<g transform="matrix(1 0 0 1 168.1355 139.4785)" id="7ogtWbNn9mhz1asAKtUSQ"  >
<linearGradient id="SVGID_2" gradientUnits="userSpaceOnUse" gradientTransform="matrix(1 0 0 1 0 0)"  x1="408.311" y1="365.714" x2="345.063" y2="306.738">
<stop offset="0%" style="stop-color:rgb(154,0,226);stop-opacity: 1"/>
<stop offset="77.8284%" style="stop-color:rgb(221,149,255);stop-opacity: 1"/>
</linearGradient>
<path style="stroke: none; stroke-width: 1; stroke-dasharray: none; stroke-linecap: butt; stroke-dashoffset: 0; stroke-linejoin: miter; stroke-miterlimit: 4; fill: url(#SVGID_2); fill-rule: nonzero; opacity: 1;"  transform=" translate(-379.6355, -346.4785)" d="M 380.053 362.721 L 398.252 330.236 L 361.019 330.718 L 380.053 362.721 Z" stroke-linecap="round" />
</g>
		<g transform="matrix(1 0 0 1 168.1675 138.257)" id="KfA8IHJdaGCeo8rhSBjam"  >
<linearGradient id="SVGID_3" gradientUnits="userSpaceOnUse" gradientTransform="matrix(1 0 0 1 0 0)"  x1="380.053" y1="362.721" x2="379.496" y2="319.729">
<stop offset="0%" style="stop-color:rgb(199,79,255);stop-opacity: 1"/>
<stop offset="100%" style="stop-color:rgb(160,0,235);stop-opacity: 1"/>
</linearGradient>
<path style="stroke: url(#SVGID_3); stroke-width: 5; stroke-dasharray: none; stroke-linecap: butt; stroke-dashoffset: 0; stroke-linejoin: miter; stroke-miterlimit: 4; fill: none; fill-rule: nonzero; opacity: 1;"  transform=" translate(-379.6675, -345.257)" d="M 365.381 333.162 L 379.989 357.722 L 393.954 332.792 L 365.381 333.162 Z" stroke-linecap="round" />
</g>
		<g transform="matrix(1 0 0 1 108.203 112.7445)" id="cETCDLlK4WtZo5Qio5699"  >
<linearGradient id="SVGID_4" gradientUnits="userSpaceOnUse" gradientTransform="matrix(1 0 0 1 0 0)"  x1="328.893" y1="354.022" x2="299.977" y2="272.52">
<stop offset="0%" style="stop-color:rgb(154,0,226);stop-opacity: 1"/>
<stop offset="77.8284%" style="stop-color:rgb(221,149,255);stop-opacity: 1"/>
</linearGradient>
<path style="stroke: none; stroke-width: 1; stroke-dasharray: none; stroke-linecap: butt; stroke-dashoffset: 0; stroke-linejoin: miter; stroke-miterlimit: 4; fill: url(#SVGID_4); fill-rule: nonzero; opacity: 1;"  transform=" translate(-319.703, -319.7445)" d="M 305.201 338.332 L 336.332 317.903 L 303.074 301.157 L 305.201 338.332 Z" stroke-linecap="round" />
</g>
		<g transform="matrix(1 0 0 1 107.079 112.602)" id="gOAFtI_4nfhU85d26I6U7"  >
<linearGradient id="SVGID_5" gradientUnits="userSpaceOnUse" gradientTransform="matrix(1 0 0 1 0 0)"  x1="305.201" y1="338.332" x2="324.537" y2="299.929">
<stop offset="0%" style="stop-color:rgb(199,79,255);stop-opacity: 1"/>
<stop offset="100%" style="stop-color:rgb(160,0,235);stop-opacity: 1"/>
</linearGradient>
<path style="stroke: url(#SVGID_5); stroke-width: 5; stroke-dasharray: none; stroke-linecap: butt; stroke-dashoffset: 0; stroke-linejoin: miter; stroke-miterlimit: 4; fill: none; fill-rule: nonzero; opacity: 1;"  transform=" translate(-318.579, -319.602)" d="M 305.818 305.338 L 307.45 333.866 L 331.34 318.188 L 305.818 305.338 Z" stroke-linecap="round" />
</g>
</g>
</g>
</svg>